<?xml version="1.0" encoding="UTF-8" standalone="no"?>
<!DOCTYPE svg PUBLIC "-//W3C//DTD SVG 1.1//EN"
 "http://www.w3.org/Graphics/SVG/1.1/DTD/svg11.dtd">
<!-- Generated by graphviz version 16.0.0 (20260814.1018)
 -->
<!-- Title: pipeline Pages: 1 -->
<svg width="616pt" height="508pt"
 viewBox="0.00 0.00 616.00 508.00" xmlns="http://www.w3.org/2000/svg" xmlns:xlink="http://www.w3.org/1999/xlink">
<g id="graph0" class="graph" transform="scale(1 1) rotate(0) translate(32.4 475.75)">
<title>pipeline</title>
<polygon fill="white" stroke="none" points="-32.4,32.4 -32.4,-475.75 583.57,-475.75 583.57,32.4 -32.4,32.4"/>
<text xml:space="preserve" text-anchor="middle" x="275.59" y="-7.95" font-family="serif" font-size="14.00"> &#160;a stage naming a template makes those batched LLM calls; gray = pure code</text>
<!-- outline -->
<g id="node1" class="node">
<title>outline</title>
<polygon fill="#f2f2f2" stroke="black" points="196.92,-428.35 13.5,-428.35 13.5,-368.95 202.92,-368.95 202.92,-422.35 196.92,-428.35"/>
<polyline fill="none" stroke="black" points="196.92,-428.35 196.92,-422.35"/>
<polyline fill="none" stroke="black" points="202.92,-422.35 196.92,-422.35"/>
<text xml:space="preserve" text-anchor="start" x="26.46" y="-408.8" font-family="serif" font-size="13.00">outline</text>
<text xml:space="preserve" text-anchor="start" x="26.46" y="-393.8" font-family="serif" font-size="13.00">(+ optional bible, constraint,</text>
<text xml:space="preserve" text-anchor="start" x="26.46" y="-378.8" font-family="serif" font-size="13.00">RAG query)</text>
</g>
<!-- initmeta -->
<g id="node2" class="node">
<title>initmeta</title>
<polygon fill="white" stroke="black" points="211.55,-322.95 4.88,-322.95 4.88,-248.55 211.55,-248.55 211.55,-322.95"/>
<text xml:space="preserve" text-anchor="start" x="17.84" y="-303.4" font-family="serif" font-size="13.00">01–02 Init &amp; metadata</text>
<text xml:space="preserve" text-anchor="start" x="17.84" y="-288.4" font-family="serif" font-size="13.00">novel_metadata_requirement</text>
<text xml:space="preserve" text-anchor="start" x="17.84" y="-273.4" font-family="serif" font-size="13.00">⇒ NovelPlan (title, word count,</text>
<text xml:space="preserve" text-anchor="start" x="17.84" y="-258.4" font-family="serif" font-size="13.00">writing constraints, bible)</text>
</g>
<!-- outline&#45;&gt;initmeta -->
<g id="edge1" class="edge">
<title>outline&#45;&gt;initmeta</title>
<path fill="none" stroke="black" d="M108.21,-368.51C108.21,-357.36 108.21,-344.35 108.21,-332.04"/>
<polygon fill="black" stroke="black" points="110.84,-332.25 108.21,-324.75 105.59,-332.25 110.84,-332.25"/>
</g>
<!-- chars -->
<g id="node3" class="node">
<title>chars</title>
<polygon fill="white" stroke="black" points="216.42,-205.05 0,-205.05 0,-130.65 216.42,-130.65 216.42,-205.05"/>
<text xml:space="preserve" text-anchor="start" x="12.96" y="-185.5" font-family="serif" font-size="13.00">03 Roster spans</text>
<text xml:space="preserve" text-anchor="start" x="12.96" y="-170.5" font-family="serif" font-size="13.00">novel_character_span</text>
<text xml:space="preserve" text-anchor="start" x="12.96" y="-155.5" font-family="serif" font-size="13.00">⇒ CharacterSpan[] per character</text>
<text xml:space="preserve" text-anchor="start" x="12.96" y="-140.5" font-family="serif" font-size="13.00">(skipped without a roster)</text>
</g>
<!-- initmeta&#45;&gt;chars -->
<g id="edge2" class="edge">
<title>initmeta&#45;&gt;chars</title>
<path fill="none" stroke="black" d="M108.21,-248.08C108.21,-237.3 108.21,-225.38 108.21,-214.13"/>
<polygon fill="black" stroke="black" points="110.84,-214.3 108.21,-206.8 105.59,-214.3 110.84,-214.3"/>
</g>
<!-- chapters -->
<g id="node4" class="node">
<title>chapters</title>
<polygon fill="white" stroke="black" points="213.42,-99.65 3,-99.65 3,-25.25 213.42,-25.25 213.42,-99.65"/>
<text xml:space="preserve" text-anchor="start" x="15.96" y="-80.1" font-family="serif" font-size="13.00">04 Chapters</text>
<text xml:space="preserve" text-anchor="start" x="15.96" y="-65.1" font-family="serif" font-size="13.00">chapter_plan ⇒ ChapterPlan[]</text>
<text xml:space="preserve" text-anchor="start" x="15.96" y="-50.1" font-family="serif" font-size="13.00">chapter_character_span ⇒ N−1</text>
<text xml:space="preserve" text-anchor="start" x="15.96" y="-35.1" font-family="serif" font-size="13.00">boundary cards, stitched in code</text>
</g>
<!-- chars&#45;&gt;chapters -->
<g id="edge3" class="edge">
<title>chars&#45;&gt;chapters</title>
<path fill="none" stroke="black" d="M108.21,-130.4C108.21,-123.45 108.21,-116.09 108.21,-108.9"/>
<polygon fill="black" stroke="black" points="110.84,-108.94 108.21,-101.44 105.59,-108.94 110.84,-108.94"/>
</g>
<!-- stories -->
<g id="node5" class="node">
<title>stories</title>
<polygon fill="white" stroke="black" points="550.05,-443.35 310.38,-443.35 310.38,-353.95 550.05,-353.95 550.05,-443.35"/>
<text xml:space="preserve" text-anchor="start" x="323.34" y="-423.8" font-family="serif" font-size="13.00">05 Stories</text>
<text xml:space="preserve" text-anchor="start" x="323.34" y="-408.8" font-family="serif" font-size="13.00">story_plan ⇒ StoryPlan[]</text>
<text xml:space="preserve" text-anchor="start" x="323.34" y="-393.8" font-family="serif" font-size="13.00">story_character_span ⇒ S−1</text>
<text xml:space="preserve" text-anchor="start" x="323.34" y="-378.8" font-family="serif" font-size="13.00">boundary cards, stitched in code</text>
<text xml:space="preserve" text-anchor="start" x="323.34" y="-363.8" font-family="serif" font-size="13.00">optional RAG: seals rag (query, limit)</text>
</g>
<!-- chapters&#45;&gt;stories -->
<g id="edge4" class="edge">
<title>chapters&#45;&gt;stories</title>
<path fill="none" stroke="black" d="M196.3,-99.97C209.68,-108.49 222.3,-118.66 232.21,-130.65 289.33,-199.76 236.18,-253.76 293.21,-322.95 301.05,-332.46 310.43,-340.95 320.56,-348.48"/>
<polygon fill="black" stroke="black" points="318.81,-350.46 326.44,-352.67 321.85,-346.18 318.81,-350.46"/>
<text xml:space="preserve" text-anchor="middle" x="300.43" y="-223.1" font-family="serif" font-size="11.00"> per chapter ×C</text>
</g>
<!-- splan -->
<g id="node6" class="node">
<title>splan</title>
<polygon fill="white" stroke="black" points="551.17,-315.45 309.25,-315.45 309.25,-256.05 551.17,-256.05 551.17,-315.45"/>
<text xml:space="preserve" text-anchor="start" x="322.21" y="-295.9" font-family="serif" font-size="13.00">06 Scene plans</text>
<text xml:space="preserve" text-anchor="start" x="322.21" y="-280.9" font-family="serif" font-size="13.00">scene_plan ⇒ ScenePlan[]</text>
<text xml:space="preserve" text-anchor="start" x="322.21" y="-265.9" font-family="serif" font-size="13.00">optional RAG: fetch + merge style refs</text>
</g>
<!-- stories&#45;&gt;splan -->
<g id="edge5" class="edge">
<title>stories&#45;&gt;splan</title>
<path fill="none" stroke="black" d="M430.21,-353.5C430.21,-343.99 430.21,-334.01 430.21,-324.76"/>
<polygon fill="black" stroke="black" points="432.84,-324.8 430.21,-317.3 427.59,-324.8 432.84,-324.8"/>
</g>
<!-- prose -->
<g id="node7" class="node">
<title>prose</title>
<polygon fill="white" stroke="black" points="538.8,-205.05 321.63,-205.05 321.63,-130.65 538.8,-130.65 538.8,-205.05"/>
<text xml:space="preserve" text-anchor="start" x="334.59" y="-185.5" font-family="serif" font-size="13.00">07 Scene prose</text>
<text xml:space="preserve" text-anchor="start" x="334.59" y="-170.5" font-family="serif" font-size="13.00">scene_requirement ⇒ plain prose</text>
<text xml:space="preserve" text-anchor="start" x="334.59" y="-155.5" font-family="serif" font-size="13.00">the only content&#45;writing call</text>
<text xml:space="preserve" text-anchor="start" x="334.59" y="-140.5" font-family="serif" font-size="13.00">(serial per scene)</text>
</g>
<!-- splan&#45;&gt;prose -->
<g id="edge6" class="edge">
<title>splan&#45;&gt;prose</title>
<path fill="none" stroke="black" d="M430.21,-255.8C430.21,-243.26 430.21,-228.28 430.21,-214.32"/>
<polygon fill="black" stroke="black" points="432.84,-214.33 430.21,-206.83 427.59,-214.33 432.84,-214.33"/>
<text xml:space="preserve" text-anchor="middle" x="460.96" y="-223.1" font-family="serif" font-size="11.00"> per story ×S</text>
</g>
<!-- asm -->
<g id="node8" class="node">
<title>asm</title>
<polygon fill="#e8e8e8" stroke="black" points="521.17,-92.15 339.25,-92.15 339.25,-32.75 521.17,-32.75 521.17,-92.15"/>
<text xml:space="preserve" text-anchor="start" x="352.21" y="-72.6" font-family="serif" font-size="13.00">08–09 Assemble &amp; export</text>
<text xml:space="preserve" text-anchor="start" x="352.21" y="-57.6" font-family="serif" font-size="13.00">Novel.from_context</text>
<text xml:space="preserve" text-anchor="start" x="352.21" y="-42.6" font-family="serif" font-size="13.00">⇒ EPUB / chapters/NN.txt</text>
</g>
<!-- prose&#45;&gt;asm -->
<g id="edge7" class="edge">
<title>prose&#45;&gt;asm</title>
<path fill="none" stroke="black" d="M430.21,-130.4C430.21,-120.97 430.21,-110.79 430.21,-101.29"/>
<polygon fill="black" stroke="black" points="432.84,-101.45 430.21,-93.95 427.59,-101.45 432.84,-101.45"/>
</g>
</g>
</svg>
