<?xml version="1.0" encoding="UTF-8" standalone="no"?>
<!DOCTYPE svg PUBLIC "-//W3C//DTD SVG 1.1//EN"
 "http://www.w3.org/Graphics/SVG/1.1/DTD/svg11.dtd">
<!-- Generated by graphviz version 16.0.0 (20260814.1018)
 -->
<!-- Title: prefix_sharing Pages: 1 -->
<svg width="1328pt" height="627pt"
 viewBox="0.00 0.00 1328.00 627.00" xmlns="http://www.w3.org/2000/svg" xmlns:xlink="http://www.w3.org/1999/xlink">
<g id="graph0" class="graph" transform="scale(1 1) rotate(0) translate(32.4 595.05)">
<title>prefix_sharing</title>
<polygon fill="white" stroke="none" points="-32.4,32.4 -32.4,-595.05 1296.1,-595.05 1296.1,32.4 -32.4,32.4"/>
<text xml:space="preserve" text-anchor="middle" x="631.85" y="-7.95" font-family="serif" font-size="14.00"> &#160;runtime proof 11/11: object identity · value prefix · f∘f=f idempotent · byte monotone · split == accumulated · append&#45;only</text>
<!-- novel -->
<g id="node1" class="node">
<title>novel</title>
<polygon fill="white" stroke="black" points="1147.91,-469 955.38,-469 955.38,-413.29 1147.91,-413.29 1147.91,-469"/>
<text xml:space="preserve" text-anchor="start" x="966.89" y="-451.12" font-family="serif" font-size="12.00">NovelContext</text>
<text xml:space="preserve" text-anchor="start" x="966.89" y="-436.87" font-family="serif" font-size="12.00"> prefix_log = [setting_bible]</text>
<text xml:space="preserve" text-anchor="start" x="966.89" y="-422.62" font-family="serif" font-size="12.00"> bible rendered once at the root</text>
</g>
<!-- ch1 -->
<g id="node2" class="node">
<title>ch1</title>
<polygon fill="white" stroke="black" points="857.16,-364.97 636.12,-364.97 636.12,-309.26 857.16,-309.26 857.16,-364.97"/>
<text xml:space="preserve" text-anchor="start" x="647.64" y="-347.09" font-family="serif" font-size="12.00">ChapterContext 1</text>
<text xml:space="preserve" text-anchor="start" x="647.64" y="-332.84" font-family="serif" font-size="12.00"> prefix_log = [bible]</text>
<text xml:space="preserve" text-anchor="start" x="647.64" y="-318.59" font-family="serif" font-size="12.00"> outgoing = [chapter_header, scenes]</text>
</g>
<!-- novel&#45;&gt;ch1 -->
<g id="edge1" class="edge">
<title>novel&#45;&gt;ch1</title>
<path fill="none" stroke="black" d="M969.91,-412.8C928.8,-399.05 878.88,-382.35 836.67,-368.23"/>
<polygon fill="black" stroke="black" points="837.72,-365.81 829.78,-365.92 836.06,-370.79 837.72,-365.81"/>
<text xml:space="preserve" text-anchor="start" x="908.29" y="-385.47" font-family="serif" font-size="10.00"> set_prefix_log(seed)</text>
</g>
<!-- ch2 -->
<g id="node3" class="node">
<title>ch2</title>
<polygon fill="white" stroke="black" points="1231.04,-357.85 1024.25,-357.85 1024.25,-316.39 1231.04,-316.39 1231.04,-357.85"/>
<text xml:space="preserve" text-anchor="start" x="1035.77" y="-339.97" font-family="serif" font-size="12.00">ChapterContext 2</text>
<text xml:space="preserve" text-anchor="start" x="1035.77" y="-325.72" font-family="serif" font-size="12.00"> prefix_log = [bible, Ch1 outgoing]</text>
</g>
<!-- novel&#45;&gt;ch2 -->
<g id="edge2" class="edge">
<title>novel&#45;&gt;ch2</title>
<path fill="none" stroke="black" d="M1072.01,-412.8C1083.05,-397.99 1096.63,-379.75 1107.61,-365.01"/>
<polygon fill="black" stroke="black" points="1109.49,-366.88 1111.86,-359.3 1105.28,-363.75 1109.49,-366.88"/>
<text xml:space="preserve" text-anchor="start" x="1094.2" y="-385.47" font-family="serif" font-size="10.00"> ⊕ Ch1 outgoing, then set_prefix_log</text>
</g>
<!-- ch1&#45;&gt;ch2 -->
<g id="edge7" class="edge">
<title>ch1&#45;&gt;ch2</title>
<path fill="none" stroke="black" stroke-dasharray="1,5" d="M857.61,-337.12C907.76,-337.12 966.86,-337.12 1016.97,-337.12"/>
<polygon fill="black" stroke="black" points="1016.97,-339.04 1022.47,-337.12 1016.97,-335.19 1016.97,-339.04"/>
<text xml:space="preserve" text-anchor="middle" x="940.71" y="-342.62" font-family="serif" font-size="10.00"> prefixed_entries() feeds the seed</text>
</g>
<!-- s11 -->
<g id="node4" class="node">
<title>s11</title>
<polygon fill="white" stroke="black" points="658.79,-260.57 462.5,-260.57 462.5,-219.11 658.79,-219.11 658.79,-260.57"/>
<text xml:space="preserve" text-anchor="start" x="474.02" y="-242.69" font-family="serif" font-size="12.00">RagStoryContext S1.1</text>
<text xml:space="preserve" text-anchor="start" x="474.02" y="-228.44" font-family="serif" font-size="12.00"> prefix_log = [bible, Ch1 header]</text>
</g>
<!-- ch1&#45;&gt;s11 -->
<g id="edge3" class="edge">
<title>ch1&#45;&gt;s11</title>
<path fill="none" stroke="black" d="M693.34,-308.81C666.4,-295.01 633.97,-278.4 607.92,-265.06"/>
<polygon fill="black" stroke="black" points="609.28,-262.8 601.4,-261.72 606.88,-267.47 609.28,-262.8"/>
<text xml:space="preserve" text-anchor="start" x="653.64" y="-281.76" font-family="serif" font-size="10.00"> ⊕ own header, chapters only</text>
</g>
<!-- s12 -->
<g id="node5" class="node">
<title>s12</title>
<polygon fill="white" stroke="black" points="1070.04,-260.57 797.25,-260.57 797.25,-219.11 1070.04,-219.11 1070.04,-260.57"/>
<text xml:space="preserve" text-anchor="start" x="808.77" y="-242.69" font-family="serif" font-size="12.00">StoryContext S1.2</text>
<text xml:space="preserve" text-anchor="start" x="808.77" y="-228.44" font-family="serif" font-size="12.00"> prefix_log = [bible, Ch1 header, S1.1 outgoing]</text>
</g>
<!-- ch1&#45;&gt;s12 -->
<g id="edge4" class="edge">
<title>ch1&#45;&gt;s12</title>
<path fill="none" stroke="black" d="M800.23,-308.81C827.32,-295.01 859.92,-278.4 886.11,-265.06"/>
<polygon fill="black" stroke="black" points="887.18,-267.46 892.67,-261.71 884.8,-262.78 887.18,-267.46"/>
<text xml:space="preserve" text-anchor="start" x="856.89" y="-281.76" font-family="serif" font-size="10.00"> ⊕ S1.1 outgoing</text>
</g>
<!-- s11&#45;&gt;s12 -->
<g id="edge8" class="edge">
<title>s11&#45;&gt;s12</title>
<path fill="none" stroke="black" stroke-dasharray="1,5" d="M659.13,-239.84C699.19,-239.84 746.27,-239.84 790.02,-239.84"/>
<polygon fill="black" stroke="black" points="790,-241.77 795.5,-239.84 790,-237.92 790,-241.77"/>
<text xml:space="preserve" text-anchor="middle" x="728.02" y="-245.34" font-family="serif" font-size="10.00"> scene entries feed the seed</text>
</g>
<!-- sc1 -->
<g id="node6" class="node">
<title>sc1</title>
<polygon fill="white" stroke="black" points="390.91,-170.42 144.38,-170.42 144.38,-128.96 390.91,-128.96 390.91,-170.42"/>
<text xml:space="preserve" text-anchor="start" x="155.89" y="-152.54" font-family="serif" font-size="12.00">SceneContext S1.1.1</text>
<text xml:space="preserve" text-anchor="start" x="155.89" y="-138.29" font-family="serif" font-size="12.00"> prefix_log = story.prefix_log, same bytes</text>
</g>
<!-- s11&#45;&gt;sc1 -->
<g id="edge5" class="edge">
<title>s11&#45;&gt;sc1</title>
<path fill="none" stroke="black" d="M475.49,-218.62C453.83,-213.09 430.66,-206.84 409.39,-200.42 383.04,-192.47 354.31,-182.62 329.66,-173.79"/>
<polygon fill="black" stroke="black" points="330.83,-171.42 322.88,-171.35 329.05,-176.36 330.83,-171.42"/>
<text xml:space="preserve" text-anchor="start" x="409.39" y="-190.92" font-family="serif" font-size="10.00"> set_prefix_log(story.prefix_log)</text>
</g>
<!-- sc2 -->
<g id="node7" class="node">
<title>sc2</title>
<polygon fill="white" stroke="black" points="701.16,-170.42 420.12,-170.42 420.12,-128.96 701.16,-128.96 701.16,-170.42"/>
<text xml:space="preserve" text-anchor="start" x="431.64" y="-152.54" font-family="serif" font-size="12.00">SceneContext S1.1.2</text>
<text xml:space="preserve" text-anchor="start" x="431.64" y="-138.29" font-family="serif" font-size="12.00"> prefix_log = [bible, Ch1 header, S1.1.1 outgoing]</text>
</g>
<!-- s11&#45;&gt;sc2 -->
<g id="edge6" class="edge">
<title>s11&#45;&gt;sc2</title>
<path fill="none" stroke="black" d="M560.64,-218.84C560.64,-207.31 560.64,-192.61 560.64,-179.82"/>
<polygon fill="black" stroke="black" points="563.27,-179.93 560.65,-172.43 558.02,-179.93 563.27,-179.93"/>
<text xml:space="preserve" text-anchor="start" x="560.64" y="-190.92" font-family="serif" font-size="10.00"> ⊕ S1.1.1 outgoing, then set_prefix_log</text>
</g>
<!-- render -->
<g id="node11" class="node">
<title>render</title>
<polygon fill="#e8e8e8" stroke="black" points="535.29,-80.96 0,-80.96 0,-25.25 535.29,-25.25 535.29,-80.96"/>
<text xml:space="preserve" text-anchor="start" x="11.52" y="-63.08" font-family="serif" font-size="12.00">render sinks</text>
<text xml:space="preserve" text-anchor="start" x="11.52" y="-48.83" font-family="serif" font-size="12.00"> scene writing &amp; illustration: novel_so_far = prefix_log.render()</text>
<text xml:space="preserve" text-anchor="start" x="11.52" y="-34.58" font-family="serif" font-size="12.00"> render() joins in order — identical logs are byte&#45;identical, keeping provider prefix caches warm</text>
</g>
<!-- sc1&#45;&gt;render -->
<g id="edge12" class="edge">
<title>sc1&#45;&gt;render</title>
<path fill="none" stroke="black" d="M267.64,-128.63C267.64,-117.44 267.64,-103.16 267.64,-90.1"/>
<polygon fill="black" stroke="black" points="270.27,-90.33 267.65,-82.83 265.02,-90.33 270.27,-90.33"/>
<text xml:space="preserve" text-anchor="middle" x="286.77" y="-101.46" font-family="serif" font-size="10.00"> render()</text>
</g>
<!-- walk -->
<g id="node8" class="node">
<title>walk</title>
<polygon fill="#f5f5f5" stroke="black" stroke-dasharray="5,2" points="1221.85,-562.65 881.44,-562.65 881.44,-506.31 1221.85,-506.31 1221.85,-562.65"/>
<text xml:space="preserve" text-anchor="start" x="891.52" y="-544.28" font-family="serif" font-size="11.00">iter_prefixed_contexts() — @final</text>
<text xml:space="preserve" text-anchor="start" x="891.52" y="-530.78" font-family="serif" font-size="11.00"> seed = self.prefix_log ⊕ own header;</text>
<text xml:space="preserve" text-anchor="start" x="891.52" y="-517.28" font-family="serif" font-size="11.00"> child.set_prefix_log(seed), then seed ⊕= child.prefixed_entries()</text>
</g>
<!-- walk&#45;&gt;novel -->
<g id="edge9" class="edge">
<title>walk&#45;&gt;novel</title>
<path fill="none" stroke="black" stroke-dasharray="1,5" d="M1051.64,-506.07C1051.64,-496.69 1051.64,-486.07 1051.64,-476.22"/>
<polygon fill="black" stroke="black" points="1053.57,-476.22 1051.65,-470.72 1049.72,-476.22 1053.57,-476.22"/>
</g>
<!-- immut -->
<g id="node9" class="node">
<title>immut</title>
<polygon fill="#f5f5f5" stroke="black" stroke-dasharray="5,2" points="858.73,-469.31 634.56,-469.31 634.56,-412.97 858.73,-412.97 858.73,-469.31"/>
<text xml:space="preserve" text-anchor="start" x="644.64" y="-450.94" font-family="serif" font-size="11.00">ContextEntry frozen, tuple immutable;</text>
<text xml:space="preserve" text-anchor="start" x="644.64" y="-437.44" font-family="serif" font-size="11.00"> with_entry/with_entries rebind purely —</text>
<text xml:space="preserve" text-anchor="start" x="644.64" y="-423.94" font-family="serif" font-size="11.00"> siblings share history nobody can rewrite</text>
</g>
<!-- immut&#45;&gt;ch1 -->
<g id="edge10" class="edge">
<title>immut&#45;&gt;ch1</title>
<path fill="none" stroke="black" stroke-dasharray="1,5" d="M746.64,-412.53C746.64,-400.07 746.64,-385.23 746.64,-372.09"/>
<polygon fill="black" stroke="black" points="748.57,-372.41 746.65,-366.91 744.72,-372.41 748.57,-372.41"/>
</g>
<!-- wphase -->
<g id="node10" class="node">
<title>wphase</title>
<polygon fill="#f5f5f5" stroke="black" stroke-dasharray="5,2" points="440.73,-261.26 78.56,-261.26 78.56,-218.42 440.73,-218.42 440.73,-261.26"/>
<text xml:space="preserve" text-anchor="start" x="88.64" y="-242.89" font-family="serif" font-size="11.00">write phase — compose_scenes_phase walks iter_prefixed_contexts();</text>
<text xml:space="preserve" text-anchor="start" x="88.64" y="-229.39" font-family="serif" font-size="11.00"> each scene&#39;s seed already carries every prior scene of the story</text>
</g>
<!-- wphase&#45;&gt;sc1 -->
<g id="edge11" class="edge">
<title>wphase&#45;&gt;sc1</title>
<path fill="none" stroke="black" stroke-dasharray="1,5" d="M261.54,-217.95C262.63,-205.92 264.02,-190.67 265.19,-177.74"/>
<polygon fill="black" stroke="black" points="267.1,-177.98 265.68,-172.33 263.27,-177.63 267.1,-177.98"/>
</g>
</g>
</svg>
