<?xml version="1.0" encoding="UTF-8" standalone="no"?>
<!DOCTYPE svg PUBLIC "-//W3C//DTD SVG 1.1//EN"
 "http://www.w3.org/Graphics/SVG/1.1/DTD/svg11.dtd">
<!-- Generated by graphviz version 16.0.0 (20260814.1018)
 -->
<!-- Title: prefix_sharing Pages: 1 -->
<svg width="1328pt" height="640pt"
 viewBox="0.00 0.00 1328.00 640.00" xmlns="http://www.w3.org/2000/svg" xmlns:xlink="http://www.w3.org/1999/xlink">
<g id="graph0" class="graph" transform="scale(1 1) rotate(0) translate(32.4 607.92)">
<title>prefix_sharing</title>
<polygon fill="white" stroke="none" points="-32.4,32.4 -32.4,-607.92 1296.1,-607.92 1296.1,32.4 -32.4,32.4"/>
<text xml:space="preserve" text-anchor="middle" x="631.85" y="-7.95" font-family="serif" font-size="14.00"> &#160;runtime proof 11/11: object identity · value prefix · f∘f=f idempotent · byte monotone · split == accumulated · append&#45;only</text>
<!-- novel -->
<g id="node1" class="node">
<title>novel</title>
<polygon fill="white" stroke="black" points="1147.91,-481.87 955.38,-481.87 955.38,-426.16 1147.91,-426.16 1147.91,-481.87"/>
<text xml:space="preserve" text-anchor="start" x="966.89" y="-463.99" font-family="serif" font-size="12.00">NovelContext</text>
<text xml:space="preserve" text-anchor="start" x="966.89" y="-449.74" font-family="serif" font-size="12.00"> prefix_log = [setting_bible]</text>
<text xml:space="preserve" text-anchor="start" x="966.89" y="-435.49" font-family="serif" font-size="12.00"> bible rendered once at the root</text>
</g>
<!-- ch1 -->
<g id="node2" class="node">
<title>ch1</title>
<polygon fill="white" stroke="black" points="857.16,-377.84 636.12,-377.84 636.12,-322.13 857.16,-322.13 857.16,-377.84"/>
<text xml:space="preserve" text-anchor="start" x="647.64" y="-359.96" font-family="serif" font-size="12.00">ChapterContext 1</text>
<text xml:space="preserve" text-anchor="start" x="647.64" y="-345.71" font-family="serif" font-size="12.00"> prefix_log = [bible]</text>
<text xml:space="preserve" text-anchor="start" x="647.64" y="-331.46" font-family="serif" font-size="12.00"> outgoing = [chapter_header, scenes]</text>
</g>
<!-- novel&#45;&gt;ch1 -->
<g id="edge1" class="edge">
<title>novel&#45;&gt;ch1</title>
<path fill="none" stroke="black" d="M969.91,-425.67C928.8,-411.92 878.88,-395.22 836.67,-381.1"/>
<polygon fill="black" stroke="black" points="837.72,-378.68 829.78,-378.79 836.06,-383.66 837.72,-378.68"/>
<text xml:space="preserve" text-anchor="start" x="908.29" y="-398.34" font-family="serif" font-size="10.00"> set_prefix_log(seed)</text>
</g>
<!-- ch2 -->
<g id="node3" class="node">
<title>ch2</title>
<polygon fill="white" stroke="black" points="1231.04,-370.72 1024.25,-370.72 1024.25,-329.26 1231.04,-329.26 1231.04,-370.72"/>
<text xml:space="preserve" text-anchor="start" x="1035.77" y="-352.84" font-family="serif" font-size="12.00">ChapterContext 2</text>
<text xml:space="preserve" text-anchor="start" x="1035.77" y="-338.59" font-family="serif" font-size="12.00"> prefix_log = [bible, Ch1 outgoing]</text>
</g>
<!-- novel&#45;&gt;ch2 -->
<g id="edge2" class="edge">
<title>novel&#45;&gt;ch2</title>
<path fill="none" stroke="black" d="M1072.01,-425.67C1083.05,-410.86 1096.63,-392.62 1107.61,-377.88"/>
<polygon fill="black" stroke="black" points="1109.49,-379.75 1111.86,-372.17 1105.28,-376.62 1109.49,-379.75"/>
<text xml:space="preserve" text-anchor="start" x="1094.2" y="-398.34" font-family="serif" font-size="10.00"> ⊕ Ch1 outgoing, then set_prefix_log</text>
</g>
<!-- ch1&#45;&gt;ch2 -->
<g id="edge7" class="edge">
<title>ch1&#45;&gt;ch2</title>
<path fill="none" stroke="black" stroke-dasharray="1,5" d="M857.61,-349.99C907.76,-349.99 966.86,-349.99 1016.97,-349.99"/>
<polygon fill="black" stroke="black" points="1016.97,-351.91 1022.47,-349.99 1016.97,-348.06 1016.97,-351.91"/>
<text xml:space="preserve" text-anchor="middle" x="940.71" y="-355.49" font-family="serif" font-size="10.00"> prefixed_entries() feeds the seed</text>
</g>
<!-- s11 -->
<g id="node4" class="node">
<title>s11</title>
<polygon fill="white" stroke="black" points="658.79,-267.01 462.5,-267.01 462.5,-225.55 658.79,-225.55 658.79,-267.01"/>
<text xml:space="preserve" text-anchor="start" x="474.02" y="-249.13" font-family="serif" font-size="12.00">RagStoryContext S1.1</text>
<text xml:space="preserve" text-anchor="start" x="474.02" y="-234.88" font-family="serif" font-size="12.00"> prefix_log = [bible, Ch1 header]</text>
</g>
<!-- ch1&#45;&gt;s11 -->
<g id="edge3" class="edge">
<title>ch1&#45;&gt;s11</title>
<path fill="none" stroke="black" d="M696.8,-321.73C668.28,-306.13 632.79,-286.73 605.2,-271.64"/>
<polygon fill="black" stroke="black" points="606.81,-269.53 598.97,-268.23 604.29,-274.13 606.81,-269.53"/>
<text xml:space="preserve" text-anchor="start" x="659.22" y="-294.63" font-family="serif" font-size="10.00"> ⊕ own header, chapters only</text>
</g>
<!-- s12 -->
<g id="node5" class="node">
<title>s12</title>
<polygon fill="white" stroke="black" points="1070.04,-274.13 797.25,-274.13 797.25,-218.42 1070.04,-218.42 1070.04,-274.13"/>
<text xml:space="preserve" text-anchor="start" x="808.77" y="-256.25" font-family="serif" font-size="12.00">StoryContext S1.2</text>
<text xml:space="preserve" text-anchor="start" x="808.77" y="-242" font-family="serif" font-size="12.00"> (plain run, no RAG)</text>
<text xml:space="preserve" text-anchor="start" x="808.77" y="-227.75" font-family="serif" font-size="12.00"> prefix_log = [bible, Ch1 header, S1.1 outgoing]</text>
</g>
<!-- ch1&#45;&gt;s12 -->
<g id="edge4" class="edge">
<title>ch1&#45;&gt;s12</title>
<path fill="none" stroke="black" d="M796.76,-321.73C821.07,-308.5 850.42,-292.54 875.69,-278.8"/>
<polygon fill="black" stroke="black" points="876.73,-281.22 882.06,-275.33 874.22,-276.61 876.73,-281.22"/>
<text xml:space="preserve" text-anchor="start" x="845.75" y="-294.63" font-family="serif" font-size="10.00"> ⊕ S1.1 outgoing</text>
</g>
<!-- s11&#45;&gt;s12 -->
<g id="edge8" class="edge">
<title>s11&#45;&gt;s12</title>
<path fill="none" stroke="black" stroke-dasharray="1,5" d="M659.13,-246.28C699.19,-246.28 746.27,-246.28 790.02,-246.28"/>
<polygon fill="black" stroke="black" points="790,-248.2 795.5,-246.28 790,-244.35 790,-248.2"/>
<text xml:space="preserve" text-anchor="middle" x="728.02" y="-251.78" font-family="serif" font-size="10.00"> scene entries feed the seed</text>
</g>
<!-- sc1 -->
<g id="node6" class="node">
<title>sc1</title>
<polygon fill="white" stroke="black" points="390.91,-170.42 144.38,-170.42 144.38,-128.96 390.91,-128.96 390.91,-170.42"/>
<text xml:space="preserve" text-anchor="start" x="155.89" y="-152.54" font-family="serif" font-size="12.00">SceneContext S1.1.1</text>
<text xml:space="preserve" text-anchor="start" x="155.89" y="-138.29" font-family="serif" font-size="12.00"> prefix_log = story.prefix_log, same bytes</text>
</g>
<!-- s11&#45;&gt;sc1 -->
<g id="edge5" class="edge">
<title>s11&#45;&gt;sc1</title>
<path fill="none" stroke="black" d="M490.01,-225.11C464.52,-217.62 435.58,-208.89 409.39,-200.42 383.76,-192.13 355.73,-182.43 331.41,-173.81"/>
<polygon fill="black" stroke="black" points="332.34,-171.35 324.4,-171.32 330.58,-176.3 332.34,-171.35"/>
<text xml:space="preserve" text-anchor="start" x="409.39" y="-190.92" font-family="serif" font-size="10.00"> set_prefix_log(story.prefix_log)</text>
</g>
<!-- sc2 -->
<g id="node7" class="node">
<title>sc2</title>
<polygon fill="white" stroke="black" points="701.16,-170.42 420.12,-170.42 420.12,-128.96 701.16,-128.96 701.16,-170.42"/>
<text xml:space="preserve" text-anchor="start" x="431.64" y="-152.54" font-family="serif" font-size="12.00">SceneContext S1.1.2</text>
<text xml:space="preserve" text-anchor="start" x="431.64" y="-138.29" font-family="serif" font-size="12.00"> prefix_log = [bible, Ch1 header, S1.1.1 outgoing]</text>
</g>
<!-- s11&#45;&gt;sc2 -->
<g id="edge6" class="edge">
<title>s11&#45;&gt;sc2</title>
<path fill="none" stroke="black" d="M560.64,-225.22C560.64,-211.92 560.64,-194.28 560.64,-179.49"/>
<polygon fill="black" stroke="black" points="563.27,-179.73 560.65,-172.23 558.02,-179.73 563.27,-179.73"/>
<text xml:space="preserve" text-anchor="start" x="560.64" y="-190.92" font-family="serif" font-size="10.00"> ⊕ S1.1.1 outgoing, then set_prefix_log</text>
</g>
<!-- render -->
<g id="node11" class="node">
<title>render</title>
<polygon fill="#e8e8e8" stroke="black" points="535.29,-80.96 0,-80.96 0,-25.25 535.29,-25.25 535.29,-80.96"/>
<text xml:space="preserve" text-anchor="start" x="11.52" y="-63.08" font-family="serif" font-size="12.00">render sinks</text>
<text xml:space="preserve" text-anchor="start" x="11.52" y="-48.83" font-family="serif" font-size="12.00"> scene writing &amp; illustration: novel_so_far = prefix_log.render()</text>
<text xml:space="preserve" text-anchor="start" x="11.52" y="-34.58" font-family="serif" font-size="12.00"> render() joins in order — identical logs are byte&#45;identical, keeping provider prefix caches warm</text>
</g>
<!-- sc1&#45;&gt;render -->
<g id="edge12" class="edge">
<title>sc1&#45;&gt;render</title>
<path fill="none" stroke="black" d="M267.64,-128.63C267.64,-117.44 267.64,-103.16 267.64,-90.1"/>
<polygon fill="black" stroke="black" points="270.27,-90.33 267.65,-82.83 265.02,-90.33 270.27,-90.33"/>
<text xml:space="preserve" text-anchor="middle" x="286.77" y="-101.46" font-family="serif" font-size="10.00"> render()</text>
</g>
<!-- walk -->
<g id="node8" class="node">
<title>walk</title>
<polygon fill="#f5f5f5" stroke="black" stroke-dasharray="5,2" points="1221.85,-575.52 881.44,-575.52 881.44,-519.18 1221.85,-519.18 1221.85,-575.52"/>
<text xml:space="preserve" text-anchor="start" x="891.52" y="-557.15" font-family="serif" font-size="11.00">iter_prefixed_contexts() — @final</text>
<text xml:space="preserve" text-anchor="start" x="891.52" y="-543.65" font-family="serif" font-size="11.00"> seed = self.prefix_log ⊕ own header;</text>
<text xml:space="preserve" text-anchor="start" x="891.52" y="-530.15" font-family="serif" font-size="11.00"> child.set_prefix_log(seed), then seed ⊕= child.prefixed_entries()</text>
</g>
<!-- walk&#45;&gt;novel -->
<g id="edge9" class="edge">
<title>walk&#45;&gt;novel</title>
<path fill="none" stroke="black" stroke-dasharray="1,5" d="M1051.64,-518.94C1051.64,-509.56 1051.64,-498.94 1051.64,-489.09"/>
<polygon fill="black" stroke="black" points="1053.57,-489.09 1051.65,-483.59 1049.72,-489.09 1053.57,-489.09"/>
</g>
<!-- immut -->
<g id="node9" class="node">
<title>immut</title>
<polygon fill="#f5f5f5" stroke="black" stroke-dasharray="5,2" points="858.73,-482.18 634.56,-482.18 634.56,-425.84 858.73,-425.84 858.73,-482.18"/>
<text xml:space="preserve" text-anchor="start" x="644.64" y="-463.81" font-family="serif" font-size="11.00">ContextEntry frozen, tuple immutable;</text>
<text xml:space="preserve" text-anchor="start" x="644.64" y="-450.31" font-family="serif" font-size="11.00"> with_entry/with_entries rebind purely —</text>
<text xml:space="preserve" text-anchor="start" x="644.64" y="-436.81" font-family="serif" font-size="11.00"> siblings share history nobody can rewrite</text>
</g>
<!-- immut&#45;&gt;ch1 -->
<g id="edge10" class="edge">
<title>immut&#45;&gt;ch1</title>
<path fill="none" stroke="black" stroke-dasharray="1,5" d="M746.64,-425.4C746.64,-412.94 746.64,-398.1 746.64,-384.96"/>
<polygon fill="black" stroke="black" points="748.57,-385.28 746.65,-379.78 744.72,-385.28 748.57,-385.28"/>
</g>
<!-- wphase -->
<g id="node10" class="node">
<title>wphase</title>
<polygon fill="#f5f5f5" stroke="black" stroke-dasharray="5,2" points="440.73,-267.7 78.56,-267.7 78.56,-224.86 440.73,-224.86 440.73,-267.7"/>
<text xml:space="preserve" text-anchor="start" x="88.64" y="-249.33" font-family="serif" font-size="11.00">write phase — compose_scenes_phase walks iter_prefixed_contexts();</text>
<text xml:space="preserve" text-anchor="start" x="88.64" y="-235.83" font-family="serif" font-size="11.00"> each scene&#39;s seed already carries every prior scene of the story</text>
</g>
<!-- wphase&#45;&gt;sc1 -->
<g id="edge11" class="edge">
<title>wphase&#45;&gt;sc1</title>
<path fill="none" stroke="black" stroke-dasharray="1,5" d="M261.38,-224.75C262.55,-210.9 264.11,-192.48 265.38,-177.47"/>
<polygon fill="black" stroke="black" points="267.27,-178 265.81,-172.36 263.43,-177.67 267.27,-178"/>
</g>
</g>
</svg>
