<?xml version="1.0" encoding="UTF-8" standalone="no"?>
<!DOCTYPE svg PUBLIC "-//W3C//DTD SVG 1.1//EN"
 "http://www.w3.org/Graphics/SVG/1.1/DTD/svg11.dtd">
<!-- Generated by graphviz version 16.0.0 (20260814.1018)
 -->
<!-- Title: assembly Pages: 1 -->
<svg width="687pt" height="584pt"
 viewBox="0.00 0.00 687.00 584.00" xmlns="http://www.w3.org/2000/svg" xmlns:xlink="http://www.w3.org/1999/xlink">
<g id="graph0" class="graph" transform="scale(1 1) rotate(0) translate(32.4 551.9)">
<title>assembly</title>
<polygon fill="white" stroke="none" points="-32.4,32.4 -32.4,-551.9 654.4,-551.9 654.4,32.4 -32.4,32.4"/>
<text xml:space="preserve" text-anchor="start" x="8" y="-25.2" font-family="serif" font-size="14.00"> &#160;gray rows = per&#45;scene tail; head + styles stay byte&#45;stable within a story,</text>
<text xml:space="preserve" text-anchor="middle" x="311" y="-7.95" font-family="serif" font-size="14.00"> &#160;and each scene&#39;s prompt extends the previous one byte&#45;for&#45;byte — the provider cache stays warm</text>
<g id="clust1" class="cluster">
<title>cluster_sources</title>
<path fill="white" stroke="#808080" d="M27.59,-50.5C27.59,-50.5 232.5,-50.5 232.5,-50.5 238.5,-50.5 244.5,-56.5 244.5,-62.5 244.5,-62.5 244.5,-499.5 244.5,-499.5 244.5,-505.5 238.5,-511.5 232.5,-511.5 232.5,-511.5 27.59,-511.5 27.59,-511.5 21.59,-511.5 15.59,-505.5 15.59,-499.5 15.59,-499.5 15.59,-62.5 15.59,-62.5 15.59,-56.5 21.59,-50.5 27.59,-50.5"/>
<text xml:space="preserve" text-anchor="middle" x="107.97" y="-496.1" font-family="serif" font-size="12.00">context channel (SceneContext)</text>
</g>
<!-- src_prefix -->
<g id="node1" class="node">
<title>src_prefix</title>
<polygon fill="white" stroke="black" points="218.13,-128.54 41.97,-128.54 41.97,-58.46 218.13,-58.46 218.13,-128.54"/>
<text xml:space="preserve" text-anchor="start" x="52.05" y="-111.15" font-family="serif" font-size="13.00">prefix_log.render()</text>
<text xml:space="preserve" text-anchor="start" x="52.05" y="-96.15" font-family="serif" font-size="13.00">running manuscript prefix:</text>
<text xml:space="preserve" text-anchor="start" x="52.05" y="-81.15" font-family="serif" font-size="13.00">headings, prior chapters,</text>
<text xml:space="preserve" text-anchor="start" x="52.05" y="-66.15" font-family="serif" font-size="13.00">stories, scenes, seeded bible</text>
</g>
<!-- prompt -->
<g id="node7" class="node">
<title>prompt</title>
<polygon fill="white" stroke="none" points="286.58,-202 286.58,-393 604.33,-393 604.33,-202 286.58,-202"/>
<polygon fill="none" stroke="black" points="286.58,-202 286.58,-393 604.33,-393 604.33,-202 286.58,-202"/>
<text xml:space="preserve" text-anchor="start" x="293.58" y="-374" font-family="serif" font-size="13.00"># Novel so far — prefix_log.render()</text>
<text xml:space="preserve" text-anchor="start" x="293.58" y="-347.65" font-family="serif" font-weight="bold" font-size="13.00"># Scene Writing</text>
<text xml:space="preserve" text-anchor="start" x="400.08" y="-347.65" font-family="serif" font-size="13.00"> — static head + language directive</text>
<text xml:space="preserve" text-anchor="start" x="293.58" y="-320" font-family="serif" font-size="13.00">## Writing Styles — directives + RAG refs</text>
<polygon fill="#e8e8e8" stroke="none" points="287.58,-284 287.58,-311 603.33,-311 603.33,-284 287.58,-284"/>
<text xml:space="preserve" text-anchor="start" x="293.58" y="-293" font-family="serif" font-size="13.00">## Scene — title, words, style</text>
<polygon fill="#e8e8e8" stroke="none" points="287.58,-257 287.58,-284 603.33,-284 603.33,-257 287.58,-257"/>
<text xml:space="preserve" text-anchor="start" x="293.58" y="-266" font-family="serif" font-size="13.00">## Writing Constraint</text>
<polygon fill="#e8e8e8" stroke="none" points="287.58,-230 287.58,-257 603.33,-257 603.33,-230 287.58,-230"/>
<text xml:space="preserve" text-anchor="start" x="293.58" y="-239" font-family="serif" font-size="13.00">## Characters&#39; state arc</text>
<polygon fill="#e8e8e8" stroke="none" points="287.58,-203 287.58,-230 603.33,-230 603.33,-203 287.58,-203"/>
<text xml:space="preserve" text-anchor="start" x="293.58" y="-212" font-family="serif" font-size="13.00">## Cast</text>
</g>
<!-- src_prefix&#45;&gt;prompt -->
<g id="edge1" class="edge">
<title>src_prefix&#45;&gt;prompt</title>
<path fill="none" stroke="black" d="M218.49,-120.72C227.76,-125.52 236.65,-131.08 244.5,-137.5 264.92,-154.21 257.94,-168.75 276.5,-187.5 277.79,-188.81 279.11,-190.11 280.44,-191.4"/>
<polygon fill="black" stroke="black" points="278.51,-192.95 285.27,-195.99 281.88,-189.39 278.51,-192.95"/>
</g>
<!-- src_styles -->
<g id="node2" class="node">
<title>src_styles</title>
<polygon fill="white" stroke="black" points="236.5,-217.54 23.59,-217.54 23.59,-147.46 236.5,-147.46 236.5,-217.54"/>
<text xml:space="preserve" text-anchor="start" x="33.67" y="-200.15" font-family="serif" font-size="13.00">writing_styles (list, {{ls}})</text>
<text xml:space="preserve" text-anchor="start" x="33.67" y="-185.15" font-family="serif" font-size="13.00">style directives stacked down</text>
<text xml:space="preserve" text-anchor="start" x="33.67" y="-170.15" font-family="serif" font-size="13.00">the chain; RAG reference excerpts</text>
<text xml:space="preserve" text-anchor="start" x="33.67" y="-155.15" font-family="serif" font-size="13.00">merged in at story planning</text>
</g>
<!-- src_styles&#45;&gt;prompt -->
<g id="edge2" class="edge">
<title>src_styles&#45;&gt;prompt</title>
<path fill="none" stroke="black" d="M227.64,-217.94C240.84,-222.79 254.71,-227.88 268.79,-233.04"/>
<polygon fill="black" stroke="black" points="267.8,-235.29 275.21,-235.4 269.49,-230.69 267.8,-235.29"/>
</g>
<!-- src_constr -->
<g id="node3" class="node">
<title>src_constr</title>
<polygon fill="white" stroke="black" points="230.13,-292.04 29.97,-292.04 29.97,-236.96 230.13,-236.96 230.13,-292.04"/>
<text xml:space="preserve" text-anchor="start" x="40.05" y="-274.65" font-family="serif" font-size="13.00">writing_constraints (list, {{ls}})</text>
<text xml:space="preserve" text-anchor="start" x="40.05" y="-259.65" font-family="serif" font-size="13.00">this scene&#39;s own entries only;</text>
<text xml:space="preserve" text-anchor="start" x="40.05" y="-244.65" font-family="serif" font-size="13.00">ancestors are never merged in</text>
</g>
<!-- src_constr&#45;&gt;prompt -->
<g id="edge3" class="edge">
<title>src_constr&#45;&gt;prompt</title>
<path fill="none" stroke="black" d="M230.21,-274.94C242.54,-276.24 255.41,-277.6 268.47,-278.97"/>
<polygon fill="black" stroke="black" points="267.9,-281.37 275.12,-279.67 268.42,-276.5 267.9,-281.37"/>
</g>
<!-- src_scene -->
<g id="node4" class="node">
<title>src_scene</title>
<polygon fill="white" stroke="black" points="212.13,-351.54 47.97,-351.54 47.97,-311.46 212.13,-311.46 212.13,-351.54"/>
<text xml:space="preserve" text-anchor="start" x="58.05" y="-334.15" font-family="serif" font-size="13.00">plan fields — the only tail</text>
<text xml:space="preserve" text-anchor="start" x="58.05" y="-319.15" font-family="serif" font-size="13.00">title · description · count</text>
</g>
<!-- src_scene&#45;&gt;prompt -->
<g id="edge4" class="edge">
<title>src_scene&#45;&gt;prompt</title>
<path fill="none" stroke="black" d="M212.57,-322.66C229.95,-320.77 248.94,-318.71 268.34,-316.61"/>
<polygon fill="black" stroke="black" points="268.47,-319.06 275.17,-315.86 267.95,-314.18 268.47,-319.06"/>
</g>
<!-- src_chars -->
<g id="node5" class="node">
<title>src_chars</title>
<polygon fill="white" stroke="black" points="229.75,-426.04 30.34,-426.04 30.34,-370.96 229.75,-370.96 229.75,-426.04"/>
<text xml:space="preserve" text-anchor="start" x="40.42" y="-408.65" font-family="serif" font-size="13.00">dump_characters() (list, {{ls}})</text>
<text xml:space="preserve" text-anchor="start" x="40.42" y="-393.65" font-family="serif" font-size="13.00">start/end state cards</text>
<text xml:space="preserve" text-anchor="start" x="40.42" y="-378.65" font-family="serif" font-size="13.00">per character</text>
</g>
<!-- src_chars&#45;&gt;prompt -->
<g id="edge5" class="edge">
<title>src_chars&#45;&gt;prompt</title>
<path fill="none" stroke="black" d="M217.93,-370.5C233.88,-365.36 251.03,-359.83 268.52,-354.2"/>
<polygon fill="black" stroke="black" points="269.22,-356.55 275.13,-352.07 267.71,-351.88 269.22,-356.55"/>
</g>
<!-- src_misc -->
<g id="node6" class="node">
<title>src_misc</title>
<polygon fill="white" stroke="black" points="185.13,-481.5 74.97,-481.5 74.97,-445.5 185.13,-445.5 185.13,-481.5"/>
<text xml:space="preserve" text-anchor="start" x="85.05" y="-458.65" font-family="serif" font-size="13.00">cast (list, {{ls}})</text>
</g>
<!-- src_misc&#45;&gt;prompt -->
<g id="edge6" class="edge">
<title>src_misc&#45;&gt;prompt</title>
<path fill="none" stroke="black" d="M185.48,-454.26C204.64,-449.92 226,-443.83 244.5,-435.5 265.23,-426.17 286.09,-414.65 306.11,-402.28"/>
<polygon fill="black" stroke="black" points="307.24,-404.46 311.88,-398.67 304.64,-400.31 307.24,-404.46"/>
</g>
<!-- write -->
<g id="node8" class="node">
<title>write</title>
<polygon fill="white" stroke="black" points="563.16,-178.04 327.75,-178.04 327.75,-92.96 563.16,-92.96 563.16,-178.04"/>
<text xml:space="preserve" text-anchor="start" x="337.83" y="-160.65" font-family="serif" font-size="13.00">one LLM call per scene</text>
<text xml:space="preserve" text-anchor="start" x="337.83" y="-145.65" font-family="serif" font-size="13.00">⇒ plain prose, no JSON</text>
<text xml:space="preserve" text-anchor="start" x="337.83" y="-130.65" font-family="serif" font-size="13.00">strip_overlapping_prefix vs prior</text>
<text xml:space="preserve" text-anchor="start" x="337.83" y="-115.65" font-family="serif" font-size="13.00">scene_content entries in the prefix log</text>
<text xml:space="preserve" text-anchor="start" x="337.83" y="-100.65" font-family="serif" font-size="13.00">Scene.content via set_content</text>
</g>
<!-- prompt&#45;&gt;write -->
<g id="edge7" class="edge">
<title>prompt&#45;&gt;write</title>
<path fill="none" stroke="black" d="M445.46,-197.12C445.46,-193.73 445.46,-190.34 445.46,-186.95"/>
<polygon fill="black" stroke="black" points="447.91,-187.04 445.46,-180.04 443.01,-187.04 447.91,-187.04"/>
</g>
</g>
</svg>
